<svg width="402" height="163" viewBox="0 0 402 163" fill="none" xmlns="http://www.w3.org/2000/svg">
<path d="M21.8667 132.545C24.5334 133.122 26.9333 133.811 29.0667 134.611C31.2445 135.367 33.0889 136.322 34.6 137.478C36.1111 138.589 37.2667 139.945 38.0667 141.545C38.8667 143.1 39.2667 144.989 39.2667 147.211C39.2667 149.611 38.8 151.745 37.8667 153.611C36.9778 155.478 35.7111 157.078 34.0667 158.411C32.4222 159.7 30.4445 160.7 28.1333 161.411C25.8222 162.078 23.2445 162.411 20.4 162.411C18.3111 162.411 16.4222 162.345 14.7334 162.211C13.0445 162.122 11.4222 161.922 9.86668 161.611C8.31112 161.256 6.73333 160.789 5.13333 160.211C3.57778 159.589 1.86667 158.811 0 157.878L4.66667 148.278C7.60001 149.656 10.3556 150.567 12.9333 151.011C15.5111 151.456 18.1556 151.678 20.8667 151.678C24.4222 151.678 26.2 150.567 26.2 148.345C26.2 147.9 26.0889 147.478 25.8667 147.078C25.6445 146.678 25.2222 146.3 24.6 145.945C24.0222 145.589 23.2222 145.256 22.2 144.945C21.2222 144.589 19.9333 144.233 18.3333 143.878C15.8445 143.3 13.5333 142.678 11.4 142.011C9.26668 141.3 7.4 140.411 5.8 139.345C4.24444 138.233 3 136.856 2.06667 135.211C1.17778 133.567 0.733337 131.522 0.733337 129.078C0.733337 126.9 1.13333 124.9 1.93333 123.078C2.77778 121.256 3.97779 119.678 5.53334 118.345C7.13334 117.011 9.04445 115.989 11.2667 115.278C13.4889 114.522 16 114.145 18.8 114.145C22.8 114.145 26.3111 114.567 29.3333 115.411C32.4 116.211 35.1556 117.078 37.6 118.011L32.4 127.945C31.3334 127.545 30.2 127.167 29 126.811C27.8 126.411 26.6 126.078 25.4 125.811C24.2 125.545 23 125.322 21.8 125.145C20.6445 124.967 19.5333 124.878 18.4667 124.878C16.9111 124.878 15.7333 125.189 14.9333 125.811C14.1778 126.389 13.8 127.122 13.8 128.011C13.8 128.545 13.9111 129.011 14.1333 129.411C14.4 129.811 14.8222 130.189 15.4 130.545C16.0222 130.9 16.8445 131.233 17.8667 131.545C18.9334 131.856 20.2667 132.189 21.8667 132.545ZM69.0001 114.145C72.4667 114.145 75.7334 114.789 78.8001 116.078C81.8667 117.322 84.5334 119.033 86.8001 121.211C89.0667 123.389 90.8445 125.945 92.1334 128.878C93.4667 131.811 94.1334 134.945 94.1334 138.278C94.1334 141.611 93.4667 144.745 92.1334 147.678C90.8445 150.611 89.0667 153.167 86.8001 155.345C84.5334 157.522 81.8667 159.256 78.8001 160.545C75.7334 161.789 72.4667 162.411 69.0001 162.411C65.5334 162.411 62.2667 161.789 59.2001 160.545C56.1778 159.256 53.5112 157.522 51.2001 155.345C48.9334 153.167 47.1334 150.611 45.8001 147.678C44.5112 144.745 43.8667 141.611 43.8667 138.278C43.8667 134.945 44.5112 131.811 45.8001 128.878C47.1334 125.945 48.9334 123.389 51.2001 121.211C53.5112 119.033 56.1778 117.322 59.2001 116.078C62.2667 114.789 65.5334 114.145 69.0001 114.145ZM69.0001 150.745C70.6445 150.745 72.1778 150.433 73.6001 149.811C75.0667 149.145 76.3334 148.256 77.4001 147.145C78.5112 145.989 79.3778 144.656 80.0001 143.145C80.6223 141.633 80.9334 140.011 80.9334 138.278C80.9334 136.545 80.6223 134.922 80.0001 133.411C79.3778 131.9 78.5112 130.589 77.4001 129.478C76.3334 128.322 75.0667 127.433 73.6001 126.811C72.1778 126.145 70.6445 125.811 69.0001 125.811C67.3556 125.811 65.8001 126.145 64.3334 126.811C62.9112 127.433 61.6667 128.322 60.6001 129.478C59.5334 130.589 58.6889 131.9 58.0667 133.411C57.4445 134.922 57.1334 136.545 57.1334 138.278C57.1334 140.011 57.4445 141.633 58.0667 143.145C58.6889 144.656 59.5334 145.989 60.6001 147.145C61.6667 148.256 62.9112 149.145 64.3334 149.811C65.8001 150.433 67.3556 150.745 69.0001 150.745ZM136.467 151.345V161.745H100.933V114.745H113.933V151.345H136.467ZM183.533 142.878C183.533 144.922 183.267 146.878 182.733 148.745C182.2 150.611 181.4 152.345 180.333 153.945C179.311 155.5 178 156.9 176.4 158.145C174.844 159.345 173.044 160.3 171 161.011C168.333 161.945 165.267 162.411 161.8 162.411C158.333 162.411 155.311 161.945 152.733 161.011C149.356 159.856 146.644 158.1 144.6 155.745C142.6 153.345 141.244 150.589 140.533 147.478C140.267 146.1 140.133 144.567 140.133 142.878V114.745H152.733V139.478C152.733 143.745 153.489 146.722 155 148.411C156.511 150.1 158.778 150.945 161.8 150.945C164.822 150.945 167.111 150.1 168.667 148.411C170.222 146.722 171 143.745 171 139.478V114.745H183.6L183.533 142.878ZM229.6 125.478H215.667V161.745H202.667V125.478H188.667V114.745H229.6V125.478ZM248.467 161.745H235.467V114.745H248.467V161.745ZM280.467 114.145C283.933 114.145 287.2 114.789 290.267 116.078C293.333 117.322 296 119.033 298.267 121.211C300.533 123.389 302.311 125.945 303.6 128.878C304.933 131.811 305.6 134.945 305.6 138.278C305.6 141.611 304.933 144.745 303.6 147.678C302.311 150.611 300.533 153.167 298.267 155.345C296 157.522 293.333 159.256 290.267 160.545C287.2 161.789 283.933 162.411 280.467 162.411C277 162.411 273.733 161.789 270.667 160.545C267.644 159.256 264.978 157.522 262.667 155.345C260.4 153.167 258.6 150.611 257.267 147.678C255.978 144.745 255.333 141.611 255.333 138.278C255.333 134.945 255.978 131.811 257.267 128.878C258.6 125.945 260.4 123.389 262.667 121.211C264.978 119.033 267.644 117.322 270.667 116.078C273.733 114.789 277 114.145 280.467 114.145ZM280.467 150.745C282.111 150.745 283.644 150.433 285.067 149.811C286.533 149.145 287.8 148.256 288.867 147.145C289.978 145.989 290.844 144.656 291.467 143.145C292.089 141.633 292.4 140.011 292.4 138.278C292.4 136.545 292.089 134.922 291.467 133.411C290.844 131.9 289.978 130.589 288.867 129.478C287.8 128.322 286.533 127.433 285.067 126.811C283.644 126.145 282.111 125.811 280.467 125.811C278.822 125.811 277.267 126.145 275.8 126.811C274.378 127.433 273.133 128.322 272.067 129.478C271 130.589 270.156 131.9 269.533 133.411C268.911 134.922 268.6 136.545 268.6 138.278C268.6 140.011 268.911 141.633 269.533 143.145C270.156 144.656 271 145.989 272.067 147.145C273.133 148.256 274.378 149.145 275.8 149.811C277.267 150.433 278.822 150.745 280.467 150.745ZM356.467 114.745V161.745H350.333L325.4 137.545V161.745H312.4V114.745H318.533L343.467 138.945V114.745H356.467ZM384.533 132.545C387.2 133.122 389.6 133.811 391.733 134.611C393.911 135.367 395.756 136.322 397.267 137.478C398.778 138.589 399.933 139.945 400.733 141.545C401.533 143.1 401.933 144.989 401.933 147.211C401.933 149.611 401.467 151.745 400.533 153.611C399.644 155.478 398.378 157.078 396.733 158.411C395.089 159.7 393.111 160.7 390.8 161.411C388.489 162.078 385.911 162.411 383.067 162.411C380.978 162.411 379.089 162.345 377.4 162.211C375.711 162.122 374.089 161.922 372.533 161.611C370.978 161.256 369.4 160.789 367.8 160.211C366.244 159.589 364.533 158.811 362.667 157.878L367.333 148.278C370.267 149.656 373.022 150.567 375.6 151.011C378.178 151.456 380.822 151.678 383.533 151.678C387.089 151.678 388.867 150.567 388.867 148.345C388.867 147.9 388.756 147.478 388.533 147.078C388.311 146.678 387.889 146.3 387.267 145.945C386.689 145.589 385.889 145.256 384.867 144.945C383.889 144.589 382.6 144.233 381 143.878C378.511 143.3 376.2 142.678 374.067 142.011C371.933 141.3 370.067 140.411 368.467 139.345C366.911 138.233 365.667 136.856 364.733 135.211C363.844 133.567 363.4 131.522 363.4 129.078C363.4 126.9 363.8 124.9 364.6 123.078C365.444 121.256 366.644 119.678 368.2 118.345C369.8 117.011 371.711 115.989 373.933 115.278C376.156 114.522 378.667 114.145 381.467 114.145C385.467 114.145 388.978 114.567 392 115.411C395.067 116.211 397.822 117.078 400.267 118.011L395.067 127.945C394 127.545 392.867 127.167 391.667 126.811C390.467 126.411 389.267 126.078 388.067 125.811C386.867 125.545 385.667 125.322 384.467 125.145C383.311 124.967 382.2 124.878 381.133 124.878C379.578 124.878 378.4 125.189 377.6 125.811C376.844 126.389 376.467 127.122 376.467 128.011C376.467 128.545 376.578 129.011 376.8 129.411C377.067 129.811 377.489 130.189 378.067 130.545C378.689 130.9 379.511 131.233 380.533 131.545C381.6 131.856 382.933 132.189 384.533 132.545Z" fill="#535758"/>
<path d="M337.637 0C296.66 0 273.339 21.6319 273.339 50.3493C273.339 80.5847 298.583 100.699 337.637 100.699C382.585 100.699 401.933 76.4695 401.933 50.3493C401.933 20.8014 377.273 0 337.637 0ZM2.17358 1.25215V25.094H118.198V1.25215H2.17358ZM131.412 1.25215L176.18 92.5587L193.701 63.4631L161.423 1.42015L131.412 1.25215ZM240.286 1.25215L179.34 99.3755L209.17 99.3079L271.318 1.25233L240.286 1.25215ZM337.637 24.3399C356.622 24.3399 367.816 35.3888 367.816 50.3493C367.816 65.529 356.847 76.3587 337.637 76.3587C314.633 76.3587 307.659 62.7744 307.659 50.3493C307.659 34.6193 319.426 24.3399 337.637 24.3399ZM2.17358 40.8909V99.3078H118.198V77.4659H28.4705V62.5893H118.198L118.227 40.8909H2.17358Z" fill="#4B9C8D"/>
</svg>
